 <svg version="1.0" xmlns="http://www.w3.org/2000/svg" width="700.000000pt" height="368.000000pt" viewBox="0 0 700.000000 368.000000" preserveAspectRatio="xMidYMid meet">

<g transform="translate(0.000000,368.000000) scale(0.100000,-0.100000)" fill="#000000" stroke="none">
<path d="M5786 3258 c-18 -25 -22 -131 -7 -171 29 -76 150 -30 205 76 17 33
18 40 5 63 -20 39 -54 52 -78 29 -19 -17 -21 -16 -54 4 -43 26 -52 26 -71 -1z"></path>
<path d="M2705 3141 c-12 -11 -164 -99 -335 -194 -121 -67 -275 -156 -529
-308 -124 -74 -194 -116 -241 -142 -14 -8 -77 -45 -140 -82 -63 -38 -160 -94
-215 -125 -55 -31 -145 -83 -200 -115 -55 -32 -190 -109 -300 -173 -218 -125
-247 -146 -243 -177 5 -37 49 -30 145 23 48 28 149 84 223 125 74 41 203 114
285 162 83 48 218 127 300 175 83 48 227 133 320 190 94 56 276 163 405 237
129 75 250 147 268 160 22 16 37 22 43 16 7 -7 -18 -42 -68 -99 -239 -271
-319 -382 -400 -549 -72 -150 -73 -253 -2 -330 21 -23 39 -47 39 -53 0 -6 -17
-14 -37 -18 -21 -3 -81 -14 -133 -24 -52 -10 -142 -26 -200 -35 -179 -29 -526
-104 -669 -144 -156 -45 -377 -132 -501 -197 -217 -114 -352 -292 -337 -442 8
-77 82 -220 161 -313 72 -84 198 -193 309 -268 227 -153 680 -320 988 -365
303 -45 789 5 1065 109 167 63 363 193 485 322 88 93 166 247 179 351 14 111
-2 180 -80 331 -113 219 -350 407 -680 537 -158 62 -244 104 -234 113 8 8 214
54 492 109 91 18 102 14 102 -37 0 -15 17 -41 45 -69 l45 -45 93 6 c69 3 115
13 182 37 140 50 320 143 434 225 58 41 109 75 114 75 10 0 -23 -48 -53 -75
-59 -53 -59 -125 -1 -125 24 0 34 7 47 32 23 45 165 181 245 233 83 56 215
119 229 110 19 -12 10 -39 -55 -175 -36 -74 -65 -145 -65 -157 0 -13 11 -30
26 -40 30 -19 21 -27 138 116 58 70 158 165 223 210 73 50 68 -16 -9 -128 -55
-81 -66 -127 -37 -157 22 -21 43 -9 86 48 46 63 212 209 272 239 65 33 118 31
144 -3 l21 -28 -33 -96 c-30 -90 -31 -97 -16 -120 8 -13 22 -24 31 -24 9 0 55
38 104 85 49 47 92 85 97 85 4 0 7 -36 5 -79 -5 -108 17 -158 84 -197 42 -25
60 -29 124 -30 68 0 75 -2 73 -20 -12 -102 -14 -260 -4 -321 27 -158 132 -293
291 -373 l85 -43 165 6 c157 5 170 7 269 42 263 92 427 217 513 392 40 80 43
92 43 167 0 68 -4 89 -27 132 -42 79 -110 131 -223 170 -36 12 -79 15 -189 12
-138 -3 -144 -4 -179 -31 -46 -35 -57 -80 -31 -134 31 -63 72 -56 83 14 5 32
12 40 41 50 50 17 185 16 255 -2 62 -16 119 -48 168 -93 25 -24 27 -31 27
-106 0 -107 -19 -144 -139 -268 -86 -90 -105 -104 -195 -148 -267 -129 -494
-153 -664 -69 -115 56 -185 148 -217 281 -19 80 -19 134 0 243 20 111 34 138
93 171 142 79 364 246 453 341 59 63 125 175 139 238 23 103 -11 175 -84 175
-78 0 -259 -148 -388 -317 -69 -90 -162 -238 -213 -338 -52 -103 -219 -112
-267 -15 -23 45 -22 96 1 190 26 106 98 231 249 432 124 165 172 241 172 271
0 13 -40 57 -52 57 -14 0 -234 -305 -313 -435 -74 -121 -234 -325 -256 -325
-5 0 -9 12 -9 28 0 79 -45 146 -105 158 -49 9 -129 -18 -212 -71 -73 -47 -95
-51 -86 -17 7 28 -43 82 -75 82 -34 0 -113 -45 -174 -100 -26 -23 -52 -39 -58
-35 -5 3 -10 34 -10 69 0 50 -4 67 -20 81 -27 24 -90 13 -181 -32 -77 -38 -89
-36 -89 18 0 15 -7 32 -15 39 -22 18 -46 5 -129 -70 -207 -185 -374 -298 -561
-378 -243 -103 -395 -117 -395 -37 0 36 40 59 162 95 257 75 411 149 520 251
57 53 60 58 53 90 -10 50 -30 76 -77 100 -35 18 -54 21 -119 17 -86 -5 -177
-42 -291 -119 -81 -55 -209 -178 -261 -252 -47 -67 -43 -66 -329 -128 -322
-71 -362 -79 -439 -85 -84 -7 -110 2 -174 57 -62 55 -62 130 0 266 56 123 290
419 540 683 70 74 132 145 138 157 19 42 -37 94 -68 64z m3545 -566 c10 -13 9
-23 -5 -58 -45 -102 -137 -206 -293 -331 -80 -63 -191 -131 -200 -122 -17 18
103 189 230 329 65 71 224 197 249 197 3 0 12 -7 19 -15z m-2566 -184 c11 -10
13 -18 6 -31 -12 -22 -136 -101 -205 -130 -27 -12 -61 -27 -75 -34 -41 -23
-250 -87 -261 -81 -5 4 5 23 22 44 64 81 229 195 334 233 56 21 154 20 179 -1z
m-1375 -631 c65 -27 122 -50 125 -50 14 0 300 -127 376 -168 101 -53 163 -96
248 -171 80 -71 129 -134 189 -246 l48 -90 0 -105 c0 -93 -4 -112 -28 -164
-58 -125 -183 -265 -317 -356 -208 -141 -527 -237 -865 -260 -347 -23 -494 -3
-875 122 -243 79 -480 196 -629 311 -85 66 -202 187 -252 263 -51 76 -69 126
-69 194 1 133 147 280 395 396 218 102 704 239 970 273 62 8 296 50 485 86 36
7 68 14 73 14 4 1 61 -21 126 -49z"></path>
</g>
</svg>